inDegrees=yes
name=ik_S50_A02_T02
DataType=double
version=3
OpenSimVersion=4.3-2021-08-27-4bc7ad9
endheader
time	pelvis_tilt	pelvis_list	pelvis_rotation	pelvis_tx	pelvis_ty	pelvis_tz	hip_flexion_r	hip_adduction_r	hip_rotation_r	knee_angle_r	knee_angle_r_beta	ankle_angle_r	subtalar_angle_r	mtp_angle_r	hip_flexion_l	hip_adduction_l	hip_rotation_l	knee_angle_l	knee_angle_l_beta	ankle_angle_l	subtalar_angle_l	mtp_angle_l	lumbar_extension	lumbar_bending	lumbar_rotation	arm_flex_r	arm_add_r	arm_rot_r	elbow_flex_r	pro_sup_r	wrist_flex_r	wrist_dev_r	arm_flex_l	arm_add_l	arm_rot_l	elbow_flex_l	pro_sup_l	wrist_flex_l	wrist_dev_l
21.41999999999963	-0.2171954588225503	1.319645613711591	-71.0061761492455	0	0.9399999999999999	0	5.695655331475749	0.2535157925134015	-7.894133922521329	1.567505814036929	0.02735813749909836	0	0	0	9.76876600224006	-1.762386837881495	2.292074427787916	20.51037452778118	0.3579735663269587	0	0	0	0	0	0	34.67110527055459	-34.67110527055459	4.616354341998096	79.75642584654314	85.38364591516266	0	0	34.67110527055459	-34.67110527055459	4.616354341998096	79.75642584654314	85.38364591509141	0	0
21.43999999999963	-0.2683675096922622	1.647525783185036	-73.49053844738047	0	0.9399999999999999	0	6.073676137808	0.04999603857560445	-6.778635595846242	1.423619279153265	0.02484684371609274	0	0	0	9.643295997167828	-1.908588171434726	1.662380648003367	20.10620498989546	0.3509194771545889	0	0	0	0	0	0	34.6722186779768	-34.6722186779768	4.61643705561142	79.75755975363597	85.38356320155341	0	0	34.6722186779768	-34.6722186779768	4.61643705561142	79.75755975363597	85.38356320148218	0	0
21.45999999999963	-0.3316156321443864	1.898013006236253	-75.8306506268386	0	0.9399999999999999	0	6.386747746628799	-0.08836303569645264	-5.432034103931312	0.8061952686203219	0.01407076185142474	0	0	0	9.796438125196369	-1.885016536320278	1.977482169517883	17.55238570813934	0.306346922187028	0	0	0	0	0	0	34.69539245451988	-34.69539245451988	4.617957161866494	79.77837432445425	85.38204309537193	0	0	34.69539245451988	-34.69539245451988	4.617957161866494	79.77837432445425	85.38204309530099	0	0
21.47999999999963	-0.4072870732080748	2.100992121199253	-78.12393441723448	0	0.9399999999999999	0	6.674663614814362	-0.06762687308205084	-3.933558096493127	0.7768647874666441	0.01355884838409892	0	0	0	9.966930514553399	-1.794896610242736	2.007361813413	15.76024186444739	0.2750681114452567	0	0	0	0	0	0	34.70013159614632	-34.70013159614632	4.618308766519349	79.78319425320097	85.38169149073639	0	0	34.70013159614632	-34.70013159614632	4.618308766519349	79.78319425320097	85.38169149066552	0	0
21.49999999999963	-0.4952673510734872	2.236663951478819	-80.11735835543513	0	0.9399999999999999	0	6.72624752435136	-0.1246133846004664	-3.212607073091696	-0.07793295249356573	-0.001360186616813047	0	0	0	9.862186527495767	-1.746011111882805	1.523421433035978	14.79706175541977	0.2582574472530069	0	0	0	0	0	0	34.70228897078518	-34.70228897078518	4.618468955940005	79.7853902055415	85.38153130132363	0	0	34.70228897078518	-34.70228897078518	4.618468955940005	79.7853902055415	85.38153130125278	0	0
21.51999999999963	-0.641924521032445	2.318605657320997	-82.01279690735753	0	0.9399999999999999	0	6.726080798056461	-0.2057550804226322	-2.667976205484171	-0.2748934831345516	-0.004797796372973428	0	0	0	9.810860857263123	-1.600122799592923	0.859232504721555	14.28407680986144	0.2493041709398502	0	0	0	0	0	0	34.70484816560438	-34.70484816560438	4.618659009778758	79.78799555173973	85.38134124749428	0	0	34.70484816560438	-34.70484816560438	4.618659009778758	79.78799555173973	85.38134124742345	0	0
21.53999999999963	-0.8439634423410619	2.319651681197079	-83.69164195437374	0	0.9399999999999999	0	6.508790800069236	-0.2478681145914819	-2.86235229319639	-1.307435877018611	-0.02281906081267443	0	0	0	9.714393287023462	-1.961652109892212	0.2456202453675684	13.16242757079047	0.2297276986655727	0	0	0	0	0	0	34.71636955866005	-34.71636955866005	4.619404562892907	79.79820291358547	85.38059569441613	0	0	34.71636955866005	-34.71636955866005	4.619404562892907	79.79820291358547	85.38059569434549	0	0
21.55999999999963	-1.031386650894446	2.232224312309561	-85.27107378851842	0	0.9399999999999999	0	6.292086341204993	-0.1516622547174061	-2.877658869372226	-1.820442252479599	-0.03177271114819091	0	0	0	9.532657538520889	-2.167277551326092	0.2941370306873142	12.84547461535493	0.2241958260192957	0	0	0	0	0	0	34.71863523455522	-34.71863523455522	4.619572659783399	79.80050722164574	85.38042759753398	0	0	34.71863523455522	-34.71863523455522	4.619572659783399	79.80050722164574	85.38042759746335	0	0
21.57999999999963	-1.186493640790213	2.089018716948482	-86.68682632265406	0	0.9399999999999999	0	5.960919690484485	-0.07971538728171046	-3.252766884385232	-1.921775156122572	-0.03354130395736694	0	0	0	8.963304655267534	-2.233728707714828	-0.5056185919580553	12.00839271105743	0.2095859906804402	0	0	0	0	0	0	34.73445021208394	-34.73445021208394	4.620599310411179	79.81456339560155	85.37940094695583	0	0	34.73445021208394	-34.73445021208394	4.620599310411179	79.81456339560155	85.37940094688541	0	0
21.59999999999963	-1.273918339530311	2.024887018439482	-87.87773647242354	0	0.9399999999999999	0	5.593543841774369	-0.0956778208511363	-4.476849916983791	-2.813428755665897	-0.04910359505665697	0	0	0	8.430107757798917	-2.851357350781298	-2.725342686877837	11.70600227066062	0.2043082818689603	0	0	0	0	0	0	34.75255156221603	-34.75255156221603	4.621779825658563	79.83072656518168	85.3782204317655	0	0	34.75255156221603	-34.75255156221603	4.621779825658563	79.83072656518168	85.37822043169531	0	0
21.61999999999963	-1.272905604306241	1.991290076053195	-89.03774623926743	0	0.9399999999999999	0	5.380243467446961	-0.1731296401230972	-5.673672514631852	-3.238534649991872	-0.05652309258228032	0	0	0	8.526296550931482	-3.362050259177914	-4.249812886764893	11.96813814317136	0.2088834159318607	0	0	0	0	0	0	34.7754918863176	-34.7754918863176	4.623253560051548	79.8509016430968	85.37674669744358	0	0	34.7754918863176	-34.7754918863176	4.623253560051548	79.8509016430968	85.37674669737366	0	0
21.63999999999963	-1.219707733305325	1.92518252351863	-90.03986642405265	0	0.9399999999999999	0	5.26842699881899	-0.3056957108919754	-6.861655608397949	-3.288477175144733	-0.05739475408295783	0	0	0	8.704676384524854	-3.145120688266112	-2.96019541722263	11.78236801067334	0.2056411154679042	0	0	0	0	0	0	34.7886704756377	-34.7886704756377	4.624086639430004	79.86230459252585	85.37591361810522	0	0	34.7886704756377	-34.7886704756377	4.624086639430004	79.86230459252585	85.37591361803545	0	0
21.65999999999963	-1.134595708372441	1.861517947706575	-90.95681131978941	0	0.9399999999999999	0	5.111722373471517	-0.4684739201946552	-8.329342813352156	-3.500612030044475	-0.06109720575919875	0	0	0	8.532449751519177	-2.520292130468639	-1.059657018306885	10.7893609835557	0.1883098733492607	0	0	0	0	0	0	34.79903810457009	-34.79903810457009	4.624754004015387	79.87144089138904	85.37524625355208	0	0	34.79903810457009	-34.79903810457009	4.624754004015387	79.87144089138904	85.3752462534824	0	0
21.67999999999963	-1.090880950441877	1.807150011254453	-91.89009449784248	0	0.9399999999999999	0	4.953920009857599	-0.5704891845302477	-9.818748356661928	-3.584713364924093	-0.06256505095817043	0	0	0	8.192067211480113	-2.156034425890444	-0.103070599288901	9.745240186661908	0.1700865276549171	0	0	0	0	0	0	34.8102919227299	-34.8102919227299	4.625491735115594	79.88154223354906	85.3745085224876	0	0	34.8102919227299	-34.8102919227299	4.625491735115594	79.88154223354906	85.37450852241805	0	0
21.69999999999963	-1.086658482614291	1.756348459445509	-92.76808387761101	0	0.9399999999999999	0	4.831765805481781	-0.6160906891241695	-11.13820303574755	-3.630872117682735	-0.06337067317242275	0	0	0	7.805921172293187	-2.102071361766237	-0.7389517486259068	9.452576985679823	0.1649785911983538	0	0	0	0	0	0	34.82496081853973	-34.82496081853973	4.626437506882541	79.89448999303853	85.37356275076628	0	0	34.82496081853973	-34.82496081853973	4.626437506882541	79.89448999303853	85.37356275069696	0	0
21.71999999999963	-1.076097005805618	1.597884382429839	-93.56757558352992	0	0.9399999999999999	0	4.675741171695972	-0.6426674671309359	-12.21210681524635	-3.622280388976976	-0.06322071921806915	0	0	0	7.460235950201381	-1.919395711041967	-0.9352203129400977	8.624750349474576	0.1505302907608629	0	0	0	0	0	0	34.82708954096205	-34.82708954096205	4.626594195629961	79.89663761162548	85.37340606202658	0	0	34.82708954096205	-34.82708954096205	4.626594195629961	79.89663761162548	85.37340606195727	0	0
21.73999999999963	-1.030426266501084	1.374062578140773	-94.28666497053537	0	0.9399999999999999	0	4.576224251200793	-0.6489616194032584	-12.90936850207427	-3.400870827095253	-0.05935639336783496	0	0	0	7.080435227696059	-2.000523759270496	-0.9136786122393938	8.105260228801464	0.1414634777235345	0	0	0	0	0	0	34.82902920168994	-34.82902920168994	4.626736929285253	79.89859395015679	85.37326332837834	0	0	34.82902920168994	-34.82902920168994	4.626736929285253	79.89859395015679	85.37326332830902	0	0
21.75999999999962	-0.9461128721290615	1.097487503239884	-94.86984558743723	0	0.9399999999999999	0	4.558201087570726	-0.6105644686160419	-13.1489918689985	-3.176827280703379	-0.05544609581545208	0	0	0	6.655578212579374	-1.987309998370662	-0.8321731597131218	7.558580881018279	0.1319221231520627	0	0	0	0	0	0	34.83075108296185	-34.83075108296185	4.626863578282125	79.90032981931046	85.37313667938768	0	0	34.83075108296185	-34.83075108296185	4.626863578282125	79.90032981931046	85.37313667931842	0	0
21.77999999999962	-0.835926831014887	0.8318667716559074	-95.29022476187528	0	0.9399999999999999	0	4.530149405260484	-0.5715381508599597	-13.21617737303482	-2.989262748985215	-0.05217247717700878	0	0	0	6.253163241089694	-1.769337312409232	-0.6855701173136184	7.025585729289923	0.1226196028572362	0	0	0	0	0	0	34.83229581869504	-34.83229581869504	4.626977141283203	79.90188632117575	85.37302311639222	0	0	34.83229581869504	-34.83229581869504	4.626977141283203	79.90188632117575	85.37302311632295	0	0
21.79999999999962	-0.7053877206107426	0.5943322917924905	-95.50846863463916	0	0.9399999999999999	0	4.65216681050231	-0.5221286342453904	-12.87582824389046	-2.678289112051166	-0.04674496332560819	0	0	0	6.056728843705796	-1.627025394325968	-0.6732710057953702	6.733671825688869	0.1175247441070485	0	0	0	0	0	0	34.83372308143247	-34.83372308143247	4.627081657856655	79.90331878419192	85.37291859982389	0	0	34.83372308143247	-34.83372308143247	4.627081657856655	79.90331878419192	85.37291859975471	0	0
21.81999999999962	-0.5489091925898113	0.3696995354962256	-95.47167862119319	0	0.9399999999999999	0	4.826101689766151	-0.5079891944687922	-12.51298445702414	-2.338107291476483	-0.04080767050115138	0	0	0	5.975844262534896	-1.397119640347657	-0.7558744634006955	6.622159334532137	0.1155784839792624	0	0	0	0	0	0	34.83484551241258	-34.83484551241258	4.627164080155066	79.90444845625932	85.37283617752952	0	0	34.83484551241258	-34.83484551241258	4.627164080155066	79.90444845625932	85.37283617746034	0	0
21.83999999999962	-0.4332895743048067	0.2369396966909809	-95.26310005302653	0	0.9399999999999999	0	5.140272472422474	-0.533532052416902	-12.24807935366496	-1.880886831010858	-0.03282766805854165	0	0	0	5.944471079783217	-1.233319954558078	-1.110592440281759	6.554658436153414	0.1144003710544996	0	0	0	0	0	0	34.83629471172831	-34.83629471172831	4.627270617675628	79.90590866105289	85.37272964001421	0	0	34.83629471172831	-34.83629471172831	4.627270617675628	79.90590866105289	85.37272963994505	0	0
21.85999999999962	-0.3743577925740957	0.1241409340994873	-94.97811503964441	0	0.9399999999999999	0	5.466976028438815	-0.6716728018544706	-12.1298948826212	-1.339650139163357	-0.02338130575320082	0	0	0	5.952990762830867	-1.337673611146104	-1.479347547558057	6.630821632979366	0.115729669607957	0	0	0	0	0	0	34.8380029804436	-34.8380029804436	4.627396200200885	79.90762989466847	85.37260405749512	0	0	34.8380029804436	-34.8380029804436	4.627396200200885	79.90762989466847	85.37260405742599	0	0
21.87999999999962	-0.3805985054134471	0.002425721286535966	-94.70752126925667	0	0.9399999999999999	0	5.804692706301182	-0.8840761003303336	-12.13334660201374	-0.7991961795504556	-0.01394860470251523	0	0	0	5.979644178082371	-1.429595801551655	-1.54068592134828	6.621630449500073	0.1155692531940884	0	0	0	0	0	0	34.8401181957438	-34.8401181957438	4.627551660177435	79.90976062065164	85.37244859752629	0	0	34.8401181957438	-34.8401181957438	4.627551660177435	79.90976062065164	85.37244859745714	0	0
